<svg width="20" height="20" viewBox="0 0 20 20" fill="none" xmlns="http://www.w3.org/2000/svg">
<g clip-path="url(#clip0_77_4810)">
<path d="M10 20C15.5228 20 20 15.5228 20 10C20 4.47715 15.5228 0 10 0C4.47715 0 0 4.47715 0 10C0 15.5228 4.47715 20 10 20Z" fill="#FCFCFC"/>
<path d="M4.13041 9.27529L3.04346 7.3033L4.13041 5.36224L5.21736 7.3033L4.13041 9.27529Z" fill="#A2001D"/>
<path d="M1.95658 9.27529L0.869629 7.3033L1.95658 5.36224L3.04354 7.3033L1.95658 9.27529Z" fill="#A2001D"/>
<path d="M4.13041 14.6377L3.04346 12.6657L4.13041 10.7246L5.21736 12.6657L4.13041 14.6377Z" fill="#A2001D"/>
<path d="M1.95658 14.6377L0.869629 12.6657L1.95658 10.7246L3.04354 12.6657L1.95658 14.6377Z" fill="#A2001D"/>
<path d="M5.21741 1.94101L4.90968 1.39148C4.35772 1.71851 3.84003 2.09714 3.36304 2.52074L4.13046 3.91296L5.21741 1.94101Z" fill="#A2001D"/>
<path d="M4.13041 16.0869L3.35486 17.4719C3.83142 17.8961 4.34876 18.2753 4.90048 18.603L5.2174 18.028L4.13041 16.0869Z" fill="#A2001D"/>
<path d="M6.08691 12.6087V19.2049C7.28883 19.7165 8.61121 20 9.99996 20C14.2996 20 17.965 17.2862 19.378 13.4782L6.08691 12.6087Z" fill="#6DA544"/>
<path d="M19.378 13.4782C19.78 12.3949 20 11.2232 20 10C20 4.47719 15.5228 0 9.99996 0C8.61133 0 7.28883 0.28332 6.08691 0.794844V13.4783H19.378V13.4782Z" fill="#A2001D"/>
</g>
<defs>
<clipPath id="clip0_77_4810">
<rect width="20" height="20" fill="white"/>
</clipPath>
</defs>
</svg>
