<svg width="21" height="20" viewBox="0 0 21 20" fill="none" xmlns="http://www.w3.org/2000/svg">
<g clip-path="url(#clip0_77_4806)">
<path d="M10.5 20C16.0228 20 20.5 15.5228 20.5 10C20.5 4.47715 16.0228 0 10.5 0C4.97715 0 0.5 4.47715 0.5 10C0.5 15.5228 4.97715 20 10.5 20Z" fill="#338AF3"/>
<path d="M16.1522 10.1087H4.84778C4.84778 10.8891 5.52751 11.5218 6.30786 11.5218H6.26083C6.26083 12.3022 6.89344 12.9348 7.67387 12.9348C7.67387 13.7152 8.30649 14.3478 9.08692 14.3478H11.913C12.6934 14.3478 13.3261 13.7152 13.3261 12.9348C14.1065 12.9348 14.7391 12.3022 14.7391 11.5218H14.6921C15.4723 11.5218 16.1522 10.8891 16.1522 10.1087Z" fill="#FFDA44"/>
<path d="M14.413 8.26086C14.413 10.422 12.6611 12.1739 10.5 12.1739C8.33883 12.1739 6.58691 10.422 6.58691 8.26086" fill="#338AF3"/>
<path d="M13.4888 8.26084L12.2676 8.83534L12.9179 10.0181L11.5917 9.76444L11.4237 11.1041L10.5 10.1188L9.57623 11.1041L9.40822 9.76444L8.08205 10.0181L8.73236 8.8353L7.51111 8.26084L8.7324 7.68639L8.08205 6.50362L9.40818 6.75729L9.57626 5.4176L10.5 6.40295L11.4237 5.4176L11.5917 6.75729L12.9179 6.50362L12.2676 7.68643L13.4888 8.26084Z" fill="#FFDA44"/>
</g>
<defs>
<clipPath id="clip0_77_4806">
<rect width="20" height="20" fill="white" transform="translate(0.5)"/>
</clipPath>
</defs>
</svg>
