<svg width="16" height="28" viewBox="0 0 16 28" fill="none" xmlns="http://www.w3.org/2000/svg">
<g id="Frame" clip-path="url(#clip0_76_3858)">
<path id="Vector" d="M13.835 15.0619C12.7923 14.1007 11.1942 13.2929 9.09411 12.6631C7.58332 12.1855 6.53571 11.6858 5.97916 11.1788C5.46991 10.7147 5.22256 10.1193 5.22256 9.35692C5.22256 8.49509 5.46385 7.84442 5.95976 7.36562C6.45447 6.88683 7.23775 6.64498 8.28658 6.64498C9.26144 6.64498 9.99743 6.94944 10.537 7.57679C11.0948 8.22377 11.3651 9.09174 11.3651 10.1586C11.3651 10.4311 11.5834 10.6853 11.8526 10.6853H14.8014C15.0706 10.6853 15.2888 10.4299 15.2888 10.1586C15.2888 8.25078 14.7141 6.68058 13.7101 5.52288C12.7862 4.45971 11.4379 3.7673 9.86163 3.49475V0.828237C9.86163 0.555692 9.77433 0.25 9.50515 0.25H7.12741C6.85824 0.25 6.70788 0.555692 6.70788 0.828237V3.47879C5.13162 3.73292 3.83302 4.34554 2.88968 5.3019C1.84692 6.35893 1.30129 7.73761 1.30129 9.39866C1.30129 11.0597 1.86753 12.5145 3.00244 13.5544C4.08643 14.5488 5.68937 15.3492 7.77732 15.9336C9.17171 16.3731 10.1708 16.8691 10.7516 17.4056C11.2875 17.9028 11.5482 18.4835 11.5482 19.1808C11.5482 20.0402 11.2524 20.6896 10.6449 21.1672C10.0083 21.6669 9.08805 21.921 7.91191 21.921C6.88855 21.921 6.0507 21.6558 5.34987 21.1095C4.69754 20.6025 4.36652 19.7541 4.36652 18.4921C4.36652 18.2195 4.14827 18.0489 3.87909 18.0489H1.01877C0.82477 18.0489 0.650168 18.1152 0.572567 18.2944L0.542254 18.3386C0.516792 18.3975 0.503454 18.4479 0.502242 18.5129C0.458591 20.5865 1.05272 22.1874 2.2616 23.2812C3.34195 24.2597 4.76786 24.865 6.34413 25.0945V27.3179C6.34413 27.5904 6.55753 27.7463 6.8255 27.7463H9.18747C9.45665 27.7463 9.73796 27.5904 9.73796 27.3179V25.081C11.4355 24.849 12.7826 24.2597 13.8035 23.3291C14.9384 22.293 15.4986 20.8873 15.4986 19.1513C15.4986 17.4154 14.9275 16.0674 13.8338 15.0583L13.835 15.0619Z" fill="white"/>
</g>
<defs>
<clipPath id="clip0_76_3858">
<rect width="15" height="27.5" fill="white" transform="translate(0.5 0.25)"/>
</clipPath>
</defs>
</svg>
