<svg width="40" height="40" viewBox="0 0 40 40" fill="none" xmlns="http://www.w3.org/2000/svg">
<g id="Tether (USDT)">
<path id="Tether (USDT)_2" d="M39.3971 24.8381C36.726 35.5525 25.8741 42.0731 15.1584 39.4012C4.44722 36.7301 -2.07335 25.8775 0.598971 15.1639C3.26894 4.44838 14.1209 -2.07268 24.8332 0.598468C35.5481 3.26961 42.0683 14.1234 39.3968 24.8383L39.397 24.8381H39.3971Z" fill="#50AF95"/>
<path id="Tether (USDT)_3" fill-rule="evenodd" clip-rule="evenodd" d="M22.5309 22.2676C22.3894 22.2782 21.6588 22.3218 20.0289 22.3218C18.7326 22.3218 17.8122 22.2829 17.4893 22.2676C12.4796 22.0472 8.74023 21.1751 8.74023 20.131C8.74023 19.0869 12.4796 18.216 17.4893 17.992V21.399C17.8169 21.4226 18.755 21.478 20.0513 21.478C21.6069 21.478 22.3859 21.4132 22.5261 21.4002V17.9944C27.5253 18.2171 31.2564 19.0892 31.2564 20.131C31.2564 21.1728 27.5265 22.0449 22.5261 22.2664L22.5309 22.2676ZM22.5309 17.6419V14.5932H29.5075V9.94403H10.5127V14.5932H17.4881V17.6407C11.8184 17.9012 7.55469 19.0243 7.55469 20.3701C7.55469 21.7159 11.8184 22.8378 17.4881 23.0994V32.8691H22.5297V23.0959C28.1864 22.8355 32.4431 21.7136 32.4431 20.3689C32.4431 19.0243 28.1899 17.9023 22.5297 17.6407L22.5309 17.6419Z" fill="white"/>
</g>
</svg>
