<svg width="20" height="20" viewBox="0 0 20 20" fill="none" xmlns="http://www.w3.org/2000/svg">
<g clip-path="url(#clip0_77_4802)">
<path d="M10 20C15.5228 20 20 15.5228 20 10C20 4.47715 15.5228 0 10 0C4.47715 0 0 4.47715 0 10C0 15.5228 4.47715 20 10 20Z" fill="#D80027"/>
<path d="M9.59031 8.17133L10.4108 9.30199L11.7396 8.87113L10.9178 10.0008L11.7382 11.1314L10.4099 10.6989L9.58812 11.8286L9.58898 10.4317L8.26062 9.99922L9.58945 9.56836L9.59031 8.17133Z" fill="#F0F0F0"/>
<path d="M7.35121 12.8262C5.79042 12.8262 4.52511 11.5609 4.52511 10.0001C4.52511 8.43929 5.79042 7.17398 7.35121 7.17398C7.83785 7.17398 8.29574 7.29706 8.6955 7.51367C8.06835 6.90031 7.21066 6.52179 6.26425 6.52179C4.34324 6.52179 2.78601 8.07906 2.78601 10C2.78601 11.921 4.34328 13.4783 6.26425 13.4783C7.21074 13.4783 8.06839 13.0997 8.6955 12.4864C8.29574 12.7031 7.83785 12.8262 7.35121 12.8262Z" fill="#F0F0F0"/>
</g>
<defs>
<clipPath id="clip0_77_4802">
<rect width="20" height="20" fill="white"/>
</clipPath>
</defs>
</svg>
