<svg width="20" height="20" viewBox="0 0 20 20" fill="none" xmlns="http://www.w3.org/2000/svg">
<g id="fluent:call-20-filled">
<g id="Group">
<path id="Vector" d="M6.987 2.0661C7.42458 1.93417 7.89415 1.95609 8.31754 2.12821C8.74093 2.30033 9.0926 2.61227 9.314 3.0121L9.389 3.1611L10.05 4.6321C10.2509 5.07858 10.3161 5.57428 10.2375 6.05754C10.159 6.54079 9.94003 6.99028 9.608 7.3501L9.476 7.4821L8.432 8.4551C8.244 8.6331 8.385 9.3221 9.066 10.5001C9.677 11.5601 10.176 12.0551 10.42 12.0821H10.463L10.516 12.0721L12.566 11.4451C12.8415 11.3606 13.1355 11.3573 13.4129 11.4355C13.6903 11.5137 13.9392 11.6701 14.13 11.8861L14.222 12.0011L15.578 13.8811C15.8441 14.2495 15.9768 14.6975 15.9542 15.1514C15.9317 15.6052 15.7553 16.0379 15.454 16.3781L15.332 16.5041L14.789 17.0181C14.3023 17.479 13.6935 17.7905 13.0349 17.9155C12.3763 18.0404 11.6957 17.9737 11.074 17.7231C9.139 16.9431 7.381 15.1611 5.784 12.3951C4.184 9.6221 3.519 7.2051 3.816 5.1351C3.90596 4.50925 4.16378 3.91946 4.56206 3.42839C4.96034 2.93732 5.4842 2.56331 6.078 2.3461L6.271 2.2821L6.987 2.0661Z" fill="#377DFF"/>
</g>
</g>
</svg>
